# xmcd
#
# Track frame offsets:
#	150
#	12600
#	26700
#	40050
#	54825
#	72525
#	83925
#	96675
#	110400
#	125100
#	139275
#	156825
#	170775
#	182100
#	195450
#	213675
#	231000
#	245925
#
# Disc length: 3484 seconds
#
# Revision: 1
# Processed by: cddbd v1.5.1PL2 Copyright (c) Steve Scherf et al.
# Submitted via: audiograbber 1.83.01
#
DISCID=180d9a12
DTITLE=Pioneer - P206
DYEAR=1900
DGENRE=Karaoke Country
TTITLE0=Cline, Patsy - Walkin' After Midnight
TTITLE1=Anderson, Lynn - Rocky Top
TTITLE2=Wynette, Tammy - D I V O R C E
TTITLE3=Campbell, Glen - Gentle On My Mind
TTITLE4=Rogers, Kenny and Parton, Dolly - Islands In The Stream
TTITLE5=Twitty, Conway - It'S Only Make Believe
TTITLE6=Harris, Emmylou - Blue Kentucky Girl 
TTITLE7=Rich, Charlie - Most Beautiful Girl In The World, The
TTITLE8=Milsap, Ronnie - No Getting Over Me
TTITLE9=Cash, Johnny - Folsom Prison Blues
TTITLE10=Milsap, Ronnie - Any Day Now
TTITLE11=Campbell, Glen - Southern Nights
TTITLE12=Osmond, Marie - Paper Roses
TTITLE13=Davis, Skeeter - End Of A Rainbow, The
TTITLE14=Alabama - Closer You Get, The
TTITLE15=Thomas, B.J. - Another Somebody Done Somebody Wrong
TTITLE16=Anderson, Lynn - Rose Garden 
TTITLE17=Bellamy Brothers - Let Your Love Flow
EXTD=
EXTT0=
EXTT1=
EXTT2=
EXTT3=
EXTT4=
EXTT5=
EXTT6=
EXTT7=
EXTT8=
EXTT9=
EXTT10=
EXTT11=
EXTT12=
EXTT13=
EXTT14=
EXTT15=
EXTT16=
EXTT17=
PLAYORDER=
